<svg width="127" height="54" viewBox="0 0 127 54" fill="none" xmlns="http://www.w3.org/2000/svg">
<path d="M28.784 29.1267C28.784 29.1267 26.667 39.6867 16.447 39.6867C4.69396 39.6867 5.93496 25.46 5.93496 25.46H28.857C28.857 24.36 28.346 12.7 15.863 12.7C5.35097 12.7 0.313965 20.3267 0.313965 28.1733C0.313965 33.6 2.43097 43.06 14.841 43.06C27.105 43.06 29.368 29.1267 29.368 29.1267H28.784ZM15.936 13.4333C24.696 13.4333 24.696 24.8733 24.696 24.8733H5.93496C5.93496 24.8733 6.88397 13.4333 15.936 13.4333Z" fill="#101820"/>
<path d="M41.778 0.306671V41.96H43.603V42.4733H35.208V41.96H36.814V3.24L41.778 0.306671Z" fill="#101820"/>
<path d="M48.3482 13.4333H57.9112V13.9467H55.3562L65.7222 36.9733L75.8692 13.9467H73.1682V13.4333H78.4972V13.9467H76.4532L62.7292 45.3333C62.7292 45.3333 59.2252 53.6933 51.3412 53.6933C43.3842 53.6933 44.1142 50.8333 44.1142 50.4667C44.1142 50.1 44.4792 48.6333 46.5232 48.6333C48.5672 48.6333 52.0712 50.3933 54.5532 50.3933C57.0352 50.3933 60.1742 49.66 62.3642 44.82L63.6052 41.96L50.3192 13.9467H48.3482V13.4333Z" fill="#101820"/>
<path d="M82.9502 13.4333V13.9467H86.6732V34.1867C86.6732 36.24 86.8922 43.06 93.5352 43.06C98.8642 43.06 99.0102 38.5133 99.0102 37.4867V34.26H98.4262V37.9267C98.4262 38.44 97.9882 41.8133 94.8492 41.8133C91.7102 41.8133 91.4912 37.4133 91.4912 35.8V13.8733H99.0102V13.2867H91.5642V3.75333H90.9802L86.6002 9.17999V13.4333H82.9502Z" fill="#101820"/>
<path d="M125.144 12.8467L126.677 26.34H126.166C126.166 26.34 125.728 13.4333 115.946 13.4333C109.084 13.4333 108.281 17.0267 108.281 18.3467C108.281 20.9867 109.814 22.5267 117.041 24.8733C124.852 27.3667 126.823 30.5933 126.677 34.4067C126.531 38.8067 123.319 43.2067 117.479 43.2067C111.274 43.2067 109.084 41.3733 108.573 40.9333C107.916 40.42 107.624 39.98 106.748 39.98C105.872 39.98 105.799 40.9333 105.726 41.52C105.653 42.18 105.58 43.2067 105.58 43.2067H104.923L106.383 29.86H106.967C106.967 29.86 106.748 32.94 107.04 35.7267C107.259 37.8533 108.792 42.62 117.187 42.62C119.961 42.62 124.049 41.6667 123.976 36.8267C123.903 34.04 122.516 32.7933 115.289 30.52C111.639 29.3467 105.507 27 105.507 21.1333C105.507 17.0267 108.865 13.0667 115.8 13.0667C117.552 13.0667 120.618 13.36 122.662 14.7533C123.027 14.9733 123.392 15.2667 123.757 15.1933C124.414 15.12 124.56 14.68 124.487 13.8733C124.414 13.4333 124.414 13.0667 124.414 13.0667L125.144 12.8467Z" fill="#101820"/>
</svg>
